HIERARCHY
ROOT Root
{
  OFFSET 0.0 0.0 0.0
  CHANNELS 6 Xposition Yposition Zposition Zrotation Yrotation Xrotation
  JOINT Hips
  {
    OFFSET 0.0 100.0 0.0
    CHANNELS 6 Xposition Yposition Zposition Zrotation Yrotation Xrotation
    JOINT Spine1
    {
      OFFSET 5.003913 -0.037094 -0.013727
      CHANNELS 3 Zrotation Yrotation Xrotation
      JOINT Spine2
      {
        OFFSET 7.125363 -1e-06 0.0
        CHANNELS 3 Zrotation Yrotation Xrotation
        JOINT Chest
        {
          OFFSET 7.594027 1e-06 0.0
          CHANNELS 3 Zrotation Yrotation Xrotation
          JOINT Neck1
          {
            OFFSET 26.313086 -0.460272 -0.181672
            CHANNELS 3 Zrotation Yrotation Xrotation
            JOINT Neck2
            {
              OFFSET 8.045911 0.0 0.0
              CHANNELS 3 Zrotation Yrotation Xrotation
              JOINT Head
              {
                OFFSET 6.432774 0.0 0.0
                CHANNELS 3 Zrotation Yrotation Xrotation
                JOINT HeadEnd
                {
                  OFFSET 16.169773 0.06451 0.00362
                  CHANNELS 3 Zrotation Yrotation Xrotation
                }
                JOINT Jaw
                {
                  OFFSET 0.108741 3.12938 0.002639
                  CHANNELS 3 Zrotation Yrotation Xrotation
                }
                JOINT LeftEye
                {
                  OFFSET 4.45173 8.166359 3.206392
                  CHANNELS 3 Zrotation Yrotation Xrotation
                }
                JOINT RightEye
                {
                  OFFSET 4.436895 8.135758 -3.222429
                  CHANNELS 3 Zrotation Yrotation Xrotation
                }
              }
            }
          }
          JOINT LeftShoulder
          {
            OFFSET 23.218927 5.195579 1.621656
            CHANNELS 3 Zrotation Yrotation Xrotation
            JOINT LeftArm
            {
              OFFSET 15.902118 2e-06 -2e-06
              CHANNELS 3 Zrotation Yrotation Xrotation
              JOINT LeftForeArm
              {
                OFFSET 28.739307 0.0 -1e-06
                CHANNELS 3 Zrotation Yrotation Xrotation
                JOINT LeftHand
                {
                  OFFSET 27.093981 -4e-06 0.0
                  CHANNELS 3 Zrotation Yrotation Xrotation
                  JOINT LeftHandThumb1
                  {
                    OFFSET 2.276781 3.380274 0.83384
                    CHANNELS 3 Zrotation Yrotation Xrotation
                    JOINT LeftHandThumb2
                    {
                      OFFSET 4.705309 -1e-06 -1e-06
                      CHANNELS 3 Zrotation Yrotation Xrotation
                      JOINT LeftHandThumb3
                      {
                        OFFSET 2.798515 0.0 3e-06
                        CHANNELS 3 Zrotation Yrotation Xrotation
                        JOINT LeftHandThumbEnd
                        {
                          OFFSET 3.180793 4e-06 -4e-06
                          CHANNELS 3 Zrotation Yrotation Xrotation
                        }
                      }
                    }
                  }
                  JOINT LeftHandIndex1
                  {
                    OFFSET 3.247786 2.352677 0.137192
                    CHANNELS 3 Zrotation Yrotation Xrotation
                    JOINT LeftHandIndex2
                    {
                      OFFSET 6.367095 1e-06 0.0
                      CHANNELS 3 Zrotation Yrotation Xrotation
                      JOINT LeftHandIndex3
                      {
                        OFFSET 3.662364 0.0 0.0
                        CHANNELS 3 Zrotation Yrotation Xrotation
                        JOINT LeftHandIndex4
                        {
                          OFFSET 2.329242 4e-06 -4e-06
                          CHANNELS 3 Zrotation Yrotation Xrotation
                          JOINT LeftHandIndexEnd
                          {
                            OFFSET 2.767823 1e-06 0.0
                            CHANNELS 3 Zrotation Yrotation Xrotation
                          }
                        }
                      }
                    }
                  }
                  JOINT LeftHandMiddle1
                  {
                    OFFSET 3.163612 0.945023 -0.406112
                    CHANNELS 3 Zrotation Yrotation Xrotation
                    JOINT LeftHandMiddle2
                    {
                      OFFSET 6.276789 3e-06 0.0
                      CHANNELS 3 Zrotation Yrotation Xrotation
                      JOINT LeftHandMiddle3
                      {
                        OFFSET 4.35652 -1e-06 4e-06
                        CHANNELS 3 Zrotation Yrotation Xrotation
                        JOINT LeftHandMiddle4
                        {
                          OFFSET 2.996877 0.0 8e-06
                          CHANNELS 3 Zrotation Yrotation Xrotation
                          JOINT LeftHandMiddleEnd
                          {
                            OFFSET 2.323256 3e-06 -4e-06
                            CHANNELS 3 Zrotation Yrotation Xrotation
                          }
                        }
                      }
                    }
                  }
                  JOINT LeftHandRing1
                  {
                    OFFSET 2.882606 -0.309162 0.107445
                    CHANNELS 3 Zrotation Yrotation Xrotation
                    JOINT LeftHandRing2
                    {
                      OFFSET 6.033198 0.0 4e-06
                      CHANNELS 3 Zrotation Yrotation Xrotation
                      JOINT LeftHandRing3
                      {
                        OFFSET 4.350578 3e-06 0.0
                        CHANNELS 3 Zrotation Yrotation Xrotation
                        JOINT LeftHandRing4
                        {
                          OFFSET 2.651321 2e-06 -7e-06
                          CHANNELS 3 Zrotation Yrotation Xrotation
                          JOINT LeftHandRingEnd
                          {
                            OFFSET 1.937663 1e-06 -4e-06
                            CHANNELS 3 Zrotation Yrotation Xrotation
                          }
                        }
                      }
                    }
                  }
                  JOINT LeftHandPinky1
                  {
                    OFFSET 2.865315 -1.525436 0.575687
                    CHANNELS 3 Zrotation Yrotation Xrotation
                    JOINT LeftHandPinky2
                    {
                      OFFSET 5.54936 1e-06 -8e-06
                      CHANNELS 3 Zrotation Yrotation Xrotation
                      JOINT LeftHandPinky3
                      {
                        OFFSET 3.070974 0.0 -4e-06
                        CHANNELS 3 Zrotation Yrotation Xrotation
                        JOINT LeftHandPinky4
                        {
                          OFFSET 1.549672 1e-06 0.0
                          CHANNELS 3 Zrotation Yrotation Xrotation
                          JOINT LeftHandPinkyEnd
                          {
                            OFFSET 1.952123 0.0 0.0
                            CHANNELS 3 Zrotation Yrotation Xrotation
                          }
                        }
                      }
                    }
                  }
                }
              }
            }
          }
          JOINT RightShoulder
          {
            OFFSET 23.161716 5.296122 -1.380114
            CHANNELS 3 Zrotation Yrotation Xrotation
            JOINT RightArm
            {
              OFFSET -16.027195 -2e-06 1.1e-05
              CHANNELS 3 Zrotation Yrotation Xrotation
              JOINT RightForeArm
              {
                OFFSET -28.736639 4e-06 2e-06
                CHANNELS 3 Zrotation Yrotation Xrotation
                JOINT RightHand
                {
                  OFFSET -27.133619 6e-06 0.0
                  CHANNELS 3 Zrotation Yrotation Xrotation
                  JOINT RightHandThumb1
                  {
                    OFFSET -2.274328 -3.351035 -0.83067
                    CHANNELS 3 Zrotation Yrotation Xrotation
                    JOINT RightHandThumb2
                    {
                      OFFSET -4.703594 -3e-06 2e-06
                      CHANNELS 3 Zrotation Yrotation Xrotation
                      JOINT RightHandThumb3
                      {
                        OFFSET -2.794935 -4e-06 -3e-06
                        CHANNELS 3 Zrotation Yrotation Xrotation
                        JOINT RightHandThumbEnd
                        {
                          OFFSET -3.183852 4e-06 1e-06
                          CHANNELS 3 Zrotation Yrotation Xrotation
                        }
                      }
                    }
                  }
                  JOINT RightHandIndex1
                  {
                    OFFSET -3.253496 -2.33755 -0.127667
                    CHANNELS 3 Zrotation Yrotation Xrotation
                    JOINT RightHandIndex2
                    {
                      OFFSET -6.344434 0.0 0.0
                      CHANNELS 3 Zrotation Yrotation Xrotation
                      JOINT RightHandIndex3
                      {
                        OFFSET -3.654871 0.0 -8e-06
                        CHANNELS 3 Zrotation Yrotation Xrotation
                        JOINT RightHandIndex4
                        {
                          OFFSET -2.327586 -1e-06 0.0
                          CHANNELS 3 Zrotation Yrotation Xrotation
                          JOINT RightHandIndexEnd
                          {
                            OFFSET -2.770001 3e-06 8e-06
                            CHANNELS 3 Zrotation Yrotation Xrotation
                          }
                        }
                      }
                    }
                  }
                  JOINT RightHandMiddle1
                  {
                    OFFSET -3.168223 -0.944764 0.411762
                    CHANNELS 3 Zrotation Yrotation Xrotation
                    JOINT RightHandMiddle2
                    {
                      OFFSET -6.266691 -1e-06 -4e-06
                      CHANNELS 3 Zrotation Yrotation Xrotation
                      JOINT RightHandMiddle3
                      {
                        OFFSET -4.348901 0.0 0.0
                        CHANNELS 3 Zrotation Yrotation Xrotation
                        JOINT RightHandMiddle4
                        {
                          OFFSET -3.00024 2e-06 -4e-06
                          CHANNELS 3 Zrotation Yrotation Xrotation
                          JOINT RightHandMiddleEnd
                          {
                            OFFSET -2.321477 -4e-06 -4e-06
                            CHANNELS 3 Zrotation Yrotation Xrotation
                          }
                        }
                      }
                    }
                  }
                  JOINT RightHandRing1
                  {
                    OFFSET -2.885654 0.293261 -0.119232
                    CHANNELS 3 Zrotation Yrotation Xrotation
                    JOINT RightHandRing2
                    {
                      OFFSET -6.032835 -1e-06 -4e-06
                      CHANNELS 3 Zrotation Yrotation Xrotation
                      JOINT RightHandRing3
                      {
                        OFFSET -4.33881 0.0 -4e-06
                        CHANNELS 3 Zrotation Yrotation Xrotation
                        JOINT RightHandRing4
                        {
                          OFFSET -2.654903 -4e-06 -4e-06
                          CHANNELS 3 Zrotation Yrotation Xrotation
                          JOINT RightHandRingEnd
                          {
                            OFFSET -1.935122 0.0 4e-06
                            CHANNELS 3 Zrotation Yrotation Xrotation
                          }
                        }
                      }
                    }
                  }
                  JOINT RightHandPinky1
                  {
                    OFFSET -2.866241 1.503904 -0.60527
                    CHANNELS 3 Zrotation Yrotation Xrotation
                    JOINT RightHandPinky2
                    {
                      OFFSET -5.553177 -2e-06 0.0
                      CHANNELS 3 Zrotation Yrotation Xrotation
                      JOINT RightHandPinky3
                      {
                        OFFSET -3.062664 -1e-06 -4e-06
                        CHANNELS 3 Zrotation Yrotation Xrotation
                        JOINT RightHandPinky4
                        {
                          OFFSET -1.546529 2e-06 4e-06
                          CHANNELS 3 Zrotation Yrotation Xrotation
                          JOINT RightHandPinkyEnd
                          {
                            OFFSET -1.952341 0.0 -4e-06
                            CHANNELS 3 Zrotation Yrotation Xrotation
                          }
                        }
                      }
                    }
                  }
                }
              }
            }
          }
        }
      }
    }
    JOINT LeftLeg
    {
      OFFSET -8.443107 2.567604 10.043214
      CHANNELS 3 Zrotation Yrotation Xrotation
      JOINT LeftShin
      {
        OFFSET 43.229198 1e-06 -1e-06
        CHANNELS 3 Zrotation Yrotation Xrotation
        JOINT LeftFoot
        {
          OFFSET 42.298611 1e-06 1e-06
          CHANNELS 3 Zrotation Yrotation Xrotation
          JOINT LeftToeBase
          {
            OFFSET 14.165858 1e-06 0.0
            CHANNELS 3 Zrotation Yrotation Xrotation
            JOINT LeftToeEnd
            {
              OFFSET 6.7141 -0.234461 0.0
              CHANNELS 3 Zrotation Yrotation Xrotation
            }
          }
        }
      }
    }
    JOINT RightLeg
    {
      OFFSET -8.303923 2.592729 -10.047278
      CHANNELS 3 Zrotation Yrotation Xrotation
      JOINT RightShin
      {
        OFFSET -43.369682 0.0 1e-06
        CHANNELS 3 Zrotation Yrotation Xrotation
        JOINT RightFoot
        {
          OFFSET -42.260784 4e-06 2e-06
          CHANNELS 3 Zrotation Yrotation Xrotation
          JOINT RightToeBase
          {
            OFFSET -14.222245 -2e-06 -1e-06
            CHANNELS 3 Zrotation Yrotation Xrotation
            JOINT RightToeEnd
            {
              OFFSET -6.660062 0.232574 -2e-06
              CHANNELS 3 Zrotation Yrotation Xrotation
            }
          }
        }
      }
    }
  }
}
MOTION
Frames: 4
Frame Time: 0.03333333333333333
0.0 0.0 0.0 0.0 -0.0 0.0 -2.562826 49.124313 4.953759 93.997482 -63.219051 88.757034 9.809986 -1.882403 -0.473192 -4.918063 -1.557507 1.013505 21.827011 -3.02181 -1.163726 26.519848 -0.260564 3.248941 -3.051659 -0.946571 2.356588 -29.48757 0.84594 0.661021 6e-06 0.0 0.0 -0.126453 -0.126165 0.045117 -0.028915 -0.070272 0.098629 -0.019739 -0.182424 -0.018005 -36.544716 -59.14151 34.827572 98.3535 -3.284581 -34.197754 9.616523 -0.130008 -0.18966 84.095848 71.04525 86.24144 17.636623 -26.322737 52.411194 -19.466663 -14.395596 29.410389 -2e-06 -8.774819 -1e-06 15.674393 -17.670441 6.140303 -0.609776 -1.795654 -3.889327 -4.807088 -11.046812 -2.93785 5e-06 -20.976019 -0.0 -5.019969 -25.03356 -4.031879 6e-06 -2e-06 -1e-06 -10.634532 -5.686971 -3.565587 10.573272 -17.922951 -3.113901 3e-06 -13.821211 1e-06 -0.501777 -31.181505 -4.027015 -9.697035 -57.476944 6.099674 -13.982711 -7.150198 -2.875041 13.772729 -8.401494 -3.218243 0.347734 -34.211555 0.771655 -0.963029 -17.733372 2.62102 -0.0 -1e-06 -0.0 -17.346415 -20.095219 -4.20178 21.757555 -1.638374 3.866426 1e-06 -6.338824 1e-06 -1.697589 -22.591742 -6.194005 0.0 -5e-06 -2e-06 156.536758 -58.053391 19.468573 88.586899 6.065938 -55.078907 10.302777 -0.00155 -0.04768 61.408455 65.749138 59.147724 22.182102 -20.375896 49.933304 -16.701809 -16.743526 28.476528 -4e-06 -12.690597 1e-06 15.591529 -17.092634 2.330313 -0.105919 -1.513855 -4.27588 -5.039039 -5.612869 -2.953553 4e-06 -11.02052 -3e-06 -6.111296 -15.895329 -3.840469 1e-06 1e-06 -0.0 -10.283365 -5.680285 -4.341836 11.028292 -11.302402 -2.372634 -1.384268 -14.238575 -6.320118 -0.625438 -26.924183 -3.827599 -3.70203 -48.11731 -4.21493 -13.708519 -7.363472 -3.720937 18.141146 -14.052736 -3.242675 5e-06 -18.787264 -0.0 -0.429712 -8.456039 2.555504 1e-06 0.0 -0.0 -15.92353 -20.094477 -5.47358 30.419207 -7.190824 1.735923 3e-06 -8.162925 1e-06 -1.861904 -22.861467 -6.167939 1e-06 -2e-06 -0.0 102.04744 -11.971888 6.612162 125.261711 0.172578 0.556409 -95.818283 20.008236 -10.940387 -27.754486 1.799299 1.594271 -1.0 0.0 0.0 -59.895256 1.193157 3.350244 108.977287 1.690312 0.072742 -89.182068 -0.054223 1.022292 -38.449394 0.95896 1.158169 -1.000004 -0.0 0.0 
0.0 0.0 0.0 0.0 -0.0 0.0 -2.548553 49.079006 5.669623 93.494621 -63.402863 88.960793 9.559663 -1.835644 -0.422302 -5.044477 -1.521437 1.142446 21.882835 -3.011475 -0.954486 26.44264 -0.320507 3.074886 -3.037073 -0.844622 2.505678 -29.652218 1.004395 0.681406 6e-06 -0.0 0.0 -0.136204 -0.148599 0.041381 0.021309 -0.114177 0.105218 0.024069 -0.181089 -0.036805 -36.890282 -59.384426 35.571049 98.800301 -3.15052 -34.578537 9.189347 -0.136585 -0.175534 84.832581 69.763931 86.701576 17.636637 -26.322737 52.411201 -19.466665 -14.395597 29.410393 -0.0 -8.774822 -2e-06 15.713905 -17.711689 6.117658 -0.609776 -1.795654 -3.889328 -4.80709 -11.046813 -2.937851 5e-06 -20.976025 -1e-06 -5.019969 -25.033564 -4.031882 6e-06 -2e-06 0.0 -10.634536 -5.686972 -3.565588 10.573276 -17.922955 -3.113902 4e-06 -13.821213 0.0 -0.501775 -31.181511 -4.027017 -9.529632 -57.591057 5.983582 -13.982716 -7.150199 -2.875043 13.772731 -8.401495 -3.218242 0.347736 -34.211563 0.771652 -0.963027 -17.733372 2.62102 0.0 -1e-06 -0.0 -17.346422 -20.095224 -4.201783 21.757566 -1.638374 3.86643 1e-06 -6.338827 1e-06 -1.697587 -22.591749 -6.194009 -0.0 -4e-06 -2e-06 156.522324 -58.140251 19.78443 89.21199 5.733208 -54.865456 9.632244 0.077053 -0.049596 61.35783 65.619919 58.516647 22.182121 -20.375891 49.933319 -16.701813 -16.743525 28.47653 -3e-06 -12.690601 -2e-06 15.721312 -16.985069 2.294389 -0.105919 -1.513856 -4.275881 -5.039041 -5.612872 -2.953554 4e-06 -11.020525 -4e-06 -6.111298 -15.895334 -3.840471 0.0 0.0 -0.0 -10.283371 -5.680289 -4.34184 11.028296 -11.302406 -2.372633 -1.384269 -14.238583 -6.320123 -0.625438 -26.924194 -3.827603 -3.615991 -48.262302 -4.109033 -13.708525 -7.363477 -3.720941 18.141148 -14.05274 -3.242672 6e-06 -18.78727 -3e-06 -0.429711 -8.456046 2.555503 -1e-06 1e-06 -0.0 -15.923536 -20.094486 -5.473586 30.41921 -7.190826 1.735928 2e-06 -8.162927 0.0 -1.861899 -22.861479 -6.167946 -0.0 -2e-06 -1e-06 102.210899 -12.499306 6.814759 124.876144 0.06169 0.532235 -96.227226 20.208584 -10.95814 -27.436394 1.825008 1.56867 -0.999999 0.0 0.0 -59.180183 1.596604 3.274854 107.947853 1.66377 0.036386 -88.913597 -0.152667 1.18861 -37.922264 0.954828 1.162609 -1.000003 -0.0 0.0 
0.0 0.0 0.0 0.0 -0.0 0.0 -2.541338 49.061764 6.353607 93.081146 -63.47628 89.088318 9.353475 -1.823127 -0.374963 -5.182606 -1.466709 1.256524 21.904482 -3.002671 -0.806598 26.447645 -0.290861 2.926051 -3.037364 -0.784334 2.59937 -29.807383 0.997952 0.712253 6e-06 -0.0 0.0 -0.139887 -0.155734 0.036896 0.000624 -0.135114 0.095045 0.008593 -0.173016 -0.040504 -36.904209 -59.569763 35.949013 99.086746 -3.167076 -34.339848 8.836194 -0.17065 -0.155135 84.948753 69.230293 86.482361 17.636625 -26.322729 52.41119 -19.46666 -14.395596 29.410389 -1e-06 -8.77482 -2e-06 15.791138 -17.720785 6.034676 -0.609776 -1.795654 -3.889328 -4.807087 -11.046811 -2.93785 5e-06 -20.976019 -1e-06 -5.019969 -25.03356 -4.031881 6e-06 -1e-06 -0.0 -10.634533 -5.686971 -3.565588 10.573274 -17.922949 -3.113901 3e-06 -13.821212 1e-06 -0.501776 -31.181505 -4.027017 -9.349577 -57.687019 5.878077 -13.982712 -7.150198 -2.875042 13.772727 -8.401492 -3.218241 0.347735 -34.211555 0.771653 -0.963028 -17.733368 2.621019 0.0 0.0 -0.0 -17.346418 -20.095219 -4.201782 21.757555 -1.638375 3.866428 2e-06 -6.338822 1e-06 -1.697588 -22.591742 -6.194006 0.0 -4e-06 -2e-06 156.80957 -58.152462 19.796818 89.799568 5.168777 -54.887245 9.119557 0.125311 -0.042764 61.826859 65.706795 58.888725 22.182116 -20.375893 49.933319 -16.701815 -16.743528 28.47653 -3e-06 -12.6906 -0.0 15.790539 -16.878351 2.310438 -0.105919 -1.513856 -4.275882 -5.03904 -5.612872 -2.953556 5e-06 -11.020525 -4e-06 -6.111298 -15.895334 -3.840468 0.0 -2e-06 1e-06 -10.283369 -5.680288 -4.341837 11.028295 -11.302406 -2.372633 -1.384268 -14.238582 -6.320122 -0.625439 -26.924194 -3.8276 -3.556882 -48.296021 -4.069163 -13.708524 -7.363476 -3.720939 18.141148 -14.05274 -3.242675 7e-06 -18.78727 -2e-06 -0.429713 -8.45605 2.555503 0.0 0.0 -0.0 -15.923532 -20.094484 -5.473583 30.41921 -7.190826 1.735925 3e-06 -8.162929 -0.0 -1.861902 -22.861469 -6.167942 -0.0 -3e-06 -1e-06 102.48085 -12.935773 6.999623 124.450844 -0.05313 0.518609 -96.648376 19.899139 -10.998242 -27.592318 1.840983 1.560961 -0.999999 -0.0 0.0 -58.39143 1.973638 3.266173 106.94912 1.65718 0.027623 -88.766319 -0.238922 1.264881 -37.898323 0.951541 1.160563 -1.000003 0.0 0.0 
0.0 0.0 0.0 0.0 -0.0 0.0 -2.525042 49.019096 6.93461 92.636597 -63.528164 89.270531 9.171677 -1.830843 -0.344034 -5.303919 -1.427577 1.308122 21.84322 -2.932276 -0.716385 26.44684 -0.223426 2.841473 -3.037569 -0.787323 2.639122 -30.001377 0.97553 0.778532 6e-06 -0.0 -0.0 -0.141417 -0.151213 0.031664 -0.054281 -0.138709 0.07145 -0.037158 -0.160574 -0.030369 -36.752335 -59.752502 36.1409 99.25872 -3.309719 -33.999054 8.468435 -0.223797 -0.139765 85.217163 69.016815 86.789742 17.636616 -26.322723 52.411175 -19.466652 -14.395594 29.410378 -1e-06 -8.774817 -1e-06 15.857956 -17.737263 5.998548 -0.609776 -1.795654 -3.889326 -4.807086 -11.046806 -2.937849 4e-06 -20.976015 -0.0 -5.019969 -25.033552 -4.031878 6e-06 -2e-06 0.0 -10.634528 -5.686969 -3.565586 10.573269 -17.922945 -3.1139 2e-06 -13.821205 1e-06 -0.501778 -31.181498 -4.027013 -9.334245 -57.853863 5.899765 -13.982706 -7.150197 -2.87504 13.772724 -8.401489 -3.218241 0.347733 -34.211544 0.771654 -0.963029 -17.733366 2.621019 0.0 -0.0 -0.0 -17.346409 -20.095211 -4.201779 21.757549 -1.638373 3.866425 1e-06 -6.338822 1e-06 -1.697589 -22.591738 -6.194003 0.0 -3e-06 -2e-06 157.094666 -58.12862 19.664646 90.524841 4.402306 -54.885098 8.715092 0.204111 -0.033199 62.347641 66.051842 59.521351 22.182112 -20.375891 49.933315 -16.701813 -16.743526 28.476524 -3e-06 -12.6906 -0.0 15.880878 -16.837139 2.329639 -0.10592 -1.513856 -4.275882 -5.03904 -5.612872 -2.953557 4e-06 -11.020525 -2e-06 -6.111297 -15.895338 -3.840468 1e-06 2e-06 -0.0 -10.283369 -5.680289 -4.341839 11.028295 -11.302406 -2.372634 -1.384269 -14.238584 -6.320123 -0.625438 -26.924191 -3.827602 -3.53295 -48.350185 -4.059717 -13.708523 -7.363477 -3.72094 18.141146 -14.05274 -3.242675 6e-06 -18.78727 -4e-06 -0.429712 -8.456046 2.555503 -0.0 2e-06 -0.0 -15.923532 -20.094484 -5.473586 30.41921 -7.190824 1.735922 3e-06 -8.162927 -1e-06 -1.861899 -22.861473 -6.167946 -1e-06 -2e-06 -1e-06 102.762566 -13.243894 7.300513 124.030838 -0.13516 0.494161 -97.198524 19.458389 -10.904097 -28.011742 1.847724 1.564317 -0.999998 0.0 -0.0 -57.682682 2.298203 3.245972 106.124626 1.67573 0.017649 -88.84626 -0.357439 1.246391 -38.152096 0.950453 1.155835 -1.000002 -0.0 -0.0 
